<svg width="22" height="36" viewBox="0 0 22 36" fill="none" xmlns="http://www.w3.org/2000/svg">
<g clip-path="url(#clip0_166_1736)">
<path d="M15.3005 4.31506H4.10521C2.46968 4.31506 1.13848 5.6451 1.13848 7.27726V18.2307H0.848663C0.188553 18.2307 -0.34668 18.7647 -0.34668 19.4243V26.6632C-0.34668 27.3228 0.188553 27.8569 0.848663 27.8569H1.13848V29.1842C1.13848 30.8181 2.46974 32.1464 4.10521 32.1464H19.3807C21.0153 32.1464 22.3466 30.8181 22.3466 29.1842V11.3257L15.3005 4.31506ZM5.36294 24.8191C5.70606 24.8191 6.08647 24.7446 6.31066 24.6555L6.48185 25.5415C6.2732 25.6461 5.80307 25.7581 5.19169 25.7581C3.45331 25.7581 2.55808 24.6782 2.55808 23.248C2.55808 21.535 3.78169 20.5816 5.30339 20.5816C5.89285 20.5816 6.34026 20.7007 6.54157 20.8045L6.31066 21.706C6.07918 21.6087 5.75849 21.5196 5.35571 21.5196C4.45273 21.5196 3.75163 22.0635 3.75163 23.1808C3.75163 24.186 4.34843 24.8191 5.36294 24.8191ZM19.3807 30.3323H4.10521C3.47193 30.3323 2.95618 29.8174 2.95618 29.1842V27.8569H17.1961C17.8563 27.8569 18.3916 27.3228 18.3916 26.6632V19.4243C18.3916 18.7647 17.8563 18.2307 17.1961 18.2307H2.95618V7.27726C2.95618 6.64581 3.47193 6.13091 4.10521 6.13091L14.6208 6.12V10.001C14.6208 11.1345 15.542 12.0552 16.6782 12.0552L20.4858 12.0444L20.5287 29.1842C20.5287 29.8174 20.0139 30.3323 19.3807 30.3323ZM8.48374 23.5756C7.64811 23.2854 7.10334 22.8232 7.10334 22.0935C7.10334 21.2364 7.81941 20.5815 9.00573 20.5815C9.57247 20.5815 9.99075 20.7006 10.2887 20.8344L10.0353 21.7506C9.83402 21.6541 9.47587 21.5121 8.98342 21.5121C8.49097 21.5121 8.25226 21.736 8.25226 21.9963C8.25226 22.3165 8.5356 22.4584 9.18478 22.704C10.0727 23.0316 10.4904 23.4937 10.4904 24.2015C10.4904 25.043 9.84125 25.7581 8.46131 25.7581C7.88682 25.7581 7.31967 25.6089 7.03633 25.4524L7.2677 24.5144C7.57347 24.6709 8.04361 24.8265 8.52831 24.8265C9.05042 24.8265 9.32648 24.6108 9.32648 24.2833C9.32654 23.9704 9.08783 23.7912 8.48374 23.5756ZM12.5142 23.5756C11.6787 23.2854 11.1338 22.8232 11.1338 22.0935C11.1338 21.2364 11.85 20.5815 13.0362 20.5815C13.6035 20.5815 14.0207 20.7006 14.3196 20.8344L14.0659 21.7506C13.8645 21.6541 13.5065 21.5121 13.014 21.5121C12.5215 21.5121 12.2828 21.736 12.2828 21.9963C12.2828 22.3165 12.5661 22.4584 13.2154 22.704C14.1033 23.0316 14.5212 23.4937 14.5212 24.2015C14.5212 25.043 13.872 25.7581 12.492 25.7581C11.9174 25.7581 11.3502 25.6089 11.0669 25.4524L11.2984 24.5144C11.604 24.6709 12.0742 24.8265 12.5589 24.8265C13.081 24.8265 13.3571 24.6108 13.3571 24.2833C13.357 23.9704 13.1183 23.7912 12.5142 23.5756Z" fill="#2A7AE4"/>
</g>
<defs>
<clipPath id="clip0_166_1736">
<rect width="22" height="35.5385" fill="white" transform="translate(0 0.461548)"/>
</clipPath>
</defs>
</svg>
